<?xml version="1.0" encoding="UTF-8" standalone="no"?>
<!-- Created with Inkscape (http://www.inkscape.org/) -->

<svg
   width="109.43856mm"
   height="98.852478mm"
   viewBox="0 0 109.43856 98.852478"
   version="1.1"
   id="svg1"
   xmlns="http://www.w3.org/2000/svg"
   xmlns:svg="http://www.w3.org/2000/svg">
  <defs
     id="defs1" />
  <path
     style="display:inline;fill:#ffffff;stroke-width:0.264583"
     d="M 56.631961,2.0614482e-6 C 56.287061,3.0464091 56.431371,6.3130581 57.307591,8.9507951 c 1.17999,3.5521639 2.81217,6.1130339 8.8222,13.9319639 6.34174,8.25047 8.37131,11.24097 9.88054,15.51947 1.23376,3.49759 1.25913,5.51861 0.72997,8.69361 5.55625,1.05833 14.6632,4.00878 20.76742,7.669206 5.662009,3.48213 9.778469,7.99715 11.286139,12.37754 0.89188,2.5913 0.85543,6.60778 -0.091,9.11986 -0.90888,2.41253 -2.15487,4.4268 -3.99355,6.44095 -7.307659,8.00503 -21.777629,13.75517 -39.207939,15.58561 -3.85558,0.40489 -13.30432,0.69295 -16.54473,0.50436 -23.2838,-1.35509 -42.0071804,-9.39968 -47.3356024,-20.33157 -2.21594996,-4.5463 -2.16185996,-8.46022 0.17363,-12.95632 1.92571,-3.7072 7.204062,-8.28877 13.4110724,-11.64993 5.97127,-2.874776 11.5773,-5.022896 17.58652,-6.713796 0.29176,3.92284 7.93693,13.299336 10.46757,16.619136 5.51809,7.22315 7.70093,10.66826 9.26042,13.4276 0.93667,1.65735 1.46584,2.71568 1.20126,5.87044 0,0 2.12341,-1.92248 2.92458,-3.55533 1.03663,-2.11272 1.40642,-4.25681 1.20717,-7.01146 -0.24002,-3.31807 -0.80366,-5.3512 -2.38952,-8.59896 -1.54187,-3.15767 -3.75181,-6.35191 -7.95404,-11.509376 -5.93352,-7.28231 -8.13067,-11.28291 -9.03716,-16.47858 -1.00621,-5.76722 0.6147,-11.89697 3.93567,-14.88281 0.7226,-0.64969 1.88515,-1.28158 1.88515,-1.28158 0,0 -0.0992,1.48613 -0.0992,3.17501 0,3.57189 0.40747,5.43152 1.77767,8.15247 1.70153,3.37888 4.05663,6.53753 11.27787,15.13086 6.39094,7.605276 8.37571,11.469026 8.37571,16.296676 0,1.13359 0.002,2.32707 0.002,2.32707 0,0 1.68821,-1.28773 2.46983,-2.46763 2.47761,-3.74009 2.86999,-9.574276 0.98392,-14.742246 -1.29291,-3.54267 -3.38811,-6.7667 -9.58288,-14.55209 -6.30628,-7.92553 -8.95212,-14.27554 -8.95212,-19.5672 0,-5.2916639 1.14878,-10.3399769 6.08541,-13.4937469385518 z"
     id="path2996" />
</svg>
